<?xml version="1.0" standalone="no"?>
<!DOCTYPE svg PUBLIC "-//W3C//DTD SVG 20010904//EN"
 "http://www.w3.org/TR/2001/REC-SVG-20010904/DTD/svg10.dtd">
<svg version="1.0" xmlns="http://www.w3.org/2000/svg"
 width="1200.000000pt" height="1200.000000pt" viewBox="0 0 1200.000000 1200.000000"
 preserveAspectRatio="xMidYMid meet">

<g transform="translate(0.000000,1200.000000) scale(0.100000,-0.100000)"
fill="#000000" stroke="none">
<path d="M3050 10789 c-464 -52 -895 -281 -1185 -630 -315 -378 -464 -859
-414 -1340 54 -532 346 -1018 789 -1313 98 -66 258 -149 345 -181 28 -10 51
-20 53 -21 2 -1 -16 -60 -41 -131 -134 -385 -191 -738 -191 -1173 0 -358 26
-573 111 -905 354 -1387 1533 -2447 2954 -2655 563 -83 1136 -32 1680 150 223
75 499 201 686 315 l42 26 22 -43 c112 -221 329 -393 578 -460 102 -28 324
-30 424 -5 336 84 590 339 674 674 26 105 24 314 -6 422 -68 255 -235 466
-459 580 l-43 22 26 42 c53 88 139 252 187 360 573 1280 356 2771 -557 3827
-594 687 -1401 1115 -2315 1226 -176 22 -607 25 -775 6 -158 -18 -378 -57
-515 -92 -66 -17 -123 -30 -128 -30 -6 0 -24 44 -42 98 -218 671 -824 1160
-1529 1231 -118 12 -261 12 -371 0z m99 -1274 c46 -14 66 -15 130 -6 247 36
465 -133 479 -370 2 -41 0 -98 -6 -125 -8 -38 -7 -61 5 -104 21 -79 28 -227
13 -290 -22 -90 -105 -159 -192 -160 -64 0 -190 47 -284 106 -374 235 -669
671 -576 854 21 43 85 88 149 106 60 18 207 11 282 -11z m1641 -3405 l0 -530
-105 0 -105 0 0 25 c0 25 -14 33 -25 15 -14 -22 -86 -50 -130 -50 -86 0 -146
53 -165 146 -18 86 -9 479 12 524 49 105 144 136 252 82 l56 -29 0 174 0 173
105 0 105 0 0 -530z m3360 0 l0 -530 -105 0 -105 0 0 530 0 530 105 0 105 0 0
-530z m-4552 418 l3 -78 -39 0 c-49 0 -62 -14 -62 -66 l0 -43 48 -3 47 -3 3
-72 3 -73 -51 0 -50 0 0 -305 0 -305 -105 0 -105 0 0 304 0 305 -37 3 -38 3 0
70 0 70 38 3 37 3 0 72 c1 151 53 199 215 194 l90 -2 3 -77z m4112 -72 l0
-115 53 -3 52 -3 3 -67 3 -68 -56 0 -55 0 0 -206 c0 -122 4 -213 10 -225 8
-15 22 -19 60 -19 l50 0 0 -84 0 -84 -64 -7 c-132 -14 -213 15 -251 90 -18 36
-20 64 -23 288 l-4 247 -34 0 -34 0 0 70 0 70 35 0 35 0 0 108 c0 60 3 112 7
115 3 4 53 7 110 7 l103 0 0 -114z m-1592 -122 c12 -25 20 -49 18 -53 -3 -4
-28 -18 -56 -31 -37 -17 -49 -28 -45 -39 16 -41 25 -121 19 -166 -18 -148
-103 -219 -259 -217 -44 1 -89 2 -100 4 -24 4 -33 -33 -13 -50 7 -5 69 -18
138 -27 151 -19 200 -36 239 -81 76 -86 60 -239 -32 -301 -98 -67 -378 -71
-466 -6 -14 11 -35 35 -45 54 -30 54 -16 103 45 161 46 43 48 47 29 53 -31 10
-60 64 -60 111 0 31 9 54 34 91 l33 49 -22 29 c-31 38 -50 107 -49 180 1 78
18 129 61 176 47 52 109 74 208 74 66 0 89 -5 133 -26 45 -23 54 -24 59 -12 6
14 89 73 103 73 3 0 16 -21 28 -46z m-2122 1 c53 -15 90 -48 120 -105 19 -36
19 -39 27 -495 l2 -155 -91 0 c-99 0 -103 3 -104 68 0 27 -16 29 -25 3 -3 -11
-22 -34 -41 -50 -60 -54 -159 -40 -218 29 -74 88 -50 238 49 314 31 24 99 58
188 94 25 11 27 16 27 71 0 66 -15 87 -54 77 -24 -6 -36 -30 -36 -78 l0 -28
-101 0 -102 0 6 51 c8 68 41 134 84 166 65 50 177 66 269 38z m1295 -8 c51
-21 98 -75 114 -131 9 -30 15 -91 15 -153 l0 -103 -150 0 -150 0 0 -91 c0
-101 10 -129 45 -129 40 0 55 25 55 91 l0 59 100 0 100 0 0 -57 c0 -81 -16
-128 -56 -173 -49 -54 -112 -74 -220 -68 -110 6 -166 38 -206 117 -28 55 -28
55 -28 270 0 189 3 221 19 256 42 91 136 139 257 131 38 -2 86 -11 105 -19z
m1270 0 c43 -18 88 -62 107 -107 10 -23 17 -79 20 -157 l4 -123 -151 0 -151 0
0 -91 c0 -101 10 -129 45 -129 40 0 55 25 55 91 l0 59 100 0 100 0 0 -57 c0
-81 -16 -128 -56 -173 -49 -54 -112 -74 -219 -68 -66 3 -91 9 -128 31 -97 57
-112 105 -112 357 0 220 9 261 69 319 69 67 219 90 317 48z m707 3 c19 -12 41
-38 52 -63 18 -39 20 -68 20 -364 l0 -323 -105 0 -105 0 0 294 c0 260 -2 297
-16 311 -18 17 -56 14 -81 -7 -10 -8 -13 -81 -13 -304 l0 -294 -105 0 -105 0
0 380 0 381 103 -3 102 -3 5 -33 5 -33 40 29 c75 55 147 66 203 32z m1363 4
c65 -19 119 -71 137 -131 7 -22 12 -90 12 -152 l0 -111 -150 0 -150 0 0 -88
c0 -102 15 -135 58 -130 34 4 52 39 52 101 l0 47 95 0 95 0 0 -73 c0 -143 -72
-216 -220 -225 -110 -6 -163 10 -221 68 -64 64 -72 103 -67 350 3 179 5 198
25 237 55 103 196 148 334 107z"/>
<path d="M3155 9399 c175 -111 349 -283 471 -465 59 -88 54 -50 -11 81 -52
106 -122 195 -208 265 -62 51 -216 132 -272 144 -26 6 -23 2 20 -25z"/>
<path d="M3420 9384 c80 -59 160 -140 212 -217 22 -32 41 -57 43 -55 2 2 -1
25 -6 52 -23 124 -142 237 -274 261 l-40 7 65 -48z"/>
<path d="M2805 9386 c-22 -33 -16 -90 19 -176 96 -236 435 -563 663 -639 75
-25 111 -26 142 -5 21 15 23 22 18 78 -22 265 -498 742 -761 763 -61 5 -65 4
-81 -21z m402 -182 c79 -40 201 -163 241 -244 42 -83 42 -131 3 -171 -62 -62
-180 -20 -310 110 -131 131 -174 260 -107 318 38 32 91 28 173 -13z"/>
<path d="M3094 9124 c10 -43 72 -129 130 -181 54 -48 151 -102 163 -90 12 12
-42 109 -90 163 -52 58 -138 120 -181 130 -28 7 -29 6 -22 -22z"/>
<path d="M4490 6200 c-19 -19 -20 -33 -20 -234 0 -118 3 -222 6 -230 10 -27
39 -37 73 -25 l31 11 0 238 0 238 -31 11 c-40 14 -35 15 -59 -9z"/>
<path d="M5756 6198 c-18 -26 -22 -170 -6 -212 14 -37 58 -46 82 -16 14 18 18
40 18 114 0 102 -14 136 -55 136 -13 0 -31 -10 -39 -22z"/>
<path d="M5685 5576 c-41 -62 6 -96 129 -96 89 0 121 15 121 55 0 25 -5 32
-36 42 -19 6 -72 14 -116 18 -80 7 -81 7 -98 -19z"/>
<path d="M3890 5925 c-49 -36 -72 -77 -72 -130 -2 -73 44 -106 91 -67 20 16
22 25 19 120 l-3 103 -35 -26z"/>
<path d="M5137 6182 c-12 -13 -17 -37 -17 -80 l0 -62 50 0 50 0 0 64 c0 56 -3
67 -22 80 -29 21 -41 20 -61 -2z"/>
<path d="M6407 6182 c-12 -13 -17 -37 -17 -80 l0 -62 50 0 50 0 0 64 c0 56 -3
67 -22 80 -29 21 -41 20 -61 -2z"/>
<path d="M8505 6186 c-14 -10 -20 -30 -23 -80 l-4 -67 53 3 54 3 0 63 c0 51
-4 67 -20 78 -24 18 -36 18 -60 0z"/>
</g>
</svg>
